<svg width="21" height="21" fill="none" xmlns="http://www.w3.org/2000/svg"><path opacity=".24" fill-rule="evenodd" clip-rule="evenodd" d="M0 2.5C0 3.88071 1.11929 5 2.5 5S5 3.88071 5 2.5 3.88071 0 2.5 0 0 1.11929 0 2.5zM2.5 13C1.11929 13 0 11.8807 0 10.5 0 9.11929 1.11929 8 2.5 8S5 9.11929 5 10.5C5 11.8807 3.88071 13 2.5 13zm0 8C1.11929 21 0 19.8807 0 18.5S1.11929 16 2.5 16 5 17.1193 5 18.5 3.88071 21 2.5 21zm8 0C9.11929 21 8 19.8807 8 18.5S9.11929 16 10.5 16c1.3807 0 2.5 1.1193 2.5 2.5S11.8807 21 10.5 21zm5.5-2.5c0 1.3807 1.1193 2.5 2.5 2.5s2.5-1.1193 2.5-2.5-1.1193-2.5-2.5-2.5-2.5 1.1193-2.5 2.5zM10.5 13C9.11929 13 8 11.8807 8 10.5 8 9.11929 9.11929 8 10.5 8c1.3807 0 2.5 1.11929 2.5 2.5 0 1.3807-1.1193 2.5-2.5 2.5zM8 2.5C8 3.88071 9.11929 5 10.5 5 11.8807 5 13 3.88071 13 2.5S11.8807 0 10.5 0C9.11929 0 8 1.11929 8 2.5zM18.5 13c-1.3807 0-2.5-1.1193-2.5-2.5C16 9.11929 17.1193 8 18.5 8S21 9.11929 21 10.5c0 1.3807-1.1193 2.5-2.5 2.5zM16 2.5C16 3.88071 17.1193 5 18.5 5S21 3.88071 21 2.5 19.8807 0 18.5 0 16 1.11929 16 2.5z" fill="#000"/></svg>