<svg width="19" height="18" fill="none" xmlns="http://www.w3.org/2000/svg"><path opacity=".24" fill-rule="evenodd" clip-rule="evenodd" d="M15.5882 16.1776c.2164 1.2569-.8764 2.0466-2.0089 1.4536 0 0-4.25289-2.2036-4.21157-2.2253l-4.24995 2.2253c-1.13334.5934-2.22515-.1977-2.00886-1.4536 0 0 .79009-4.7094.82352-4.6769L.49416 8.16277c-.9169-.89013-.49884-2.16876.76732-2.352 0 0 4.74121-.70689 4.72055-.66519L8.107.85734c.56667-1.14355 1.9169-1.14268 2.4831 0 0 0 2.1401 4.27246 2.0939 4.26578l4.7516.68765c1.2671.18338 1.6835 1.46254.7673 2.352 0 0-3.4185 3.34743-3.4264 3.30163l.8117 4.7132zm-10.49173-.6203l3.40868-1.7855c.49925-.2614 1.18875-.2608 1.68675 0l3.4171 1.7892-.6595-3.7846c-.0953-.5536.1184-1.2065.5213-1.5977l2.7534-2.67305-3.8067-.55557c-.5582-.08078-1.1156-.48492-1.3647-.98746L9.34969 2.52567 7.64427 5.96262c-.24963.50375-.80781.90688-1.36465.98746l-3.81108.55155 2.75778 2.67707c.4039.3921.61637 1.0454.52125 1.5977l-.6511 3.7809z" fill="#000"/></svg>