<svg width="22" height="16" fill="none" xmlns="http://www.w3.org/2000/svg"><path opacity=".24" fill-rule="evenodd" clip-rule="evenodd" d="M12.9034.5233c-.7959.28766-1.1358.36569-1.9036.36569S9.89216.81096 9.09627.5233L9.03409.50081C8.02943.13754 7.43229 0 6.44525 0 4.05055 0 1.85231 2.2826.943 5.06478.24526 7.1996.05898 8.56701 0 11.5385.05825 14.4925 1.34092 15.9856 3.66063 16c1.45404-.0083 2.45156-.637 3.37355-1.7792.14224-.1762.5334-.6977.57526-.7535l.00364-.0048c.949-1.2275 1.93017-1.8973 3.38962-1.9069 1.4537.0096 2.4349.6794 3.3839 1.9069l.0036.0048c.0419.0558.433.5773.5753.7535.922 1.1422 1.9195 1.7709 3.3623 1.7792 2.3309-.0144 3.6136-1.5075 3.6719-4.4273-.059-3.00569-.2453-4.3731-.943-6.50792C20.1474 2.2826 17.9491 0 15.5544 0c-.987 0-1.5842.13754-2.5888.50081l-.0622.02249zM8.45597 2.18913c.98593.35634 1.62533.47763 2.54383.47763.9185 0 1.558-.12129 2.5439-.47763l.0624-.02258c.8177-.29568 1.2219-.38877 1.9483-.38877 1.425 0 3.0594 1.69714 3.7546 3.82411.6375 1.95065.8018 3.15639.8577 5.97081-.0404 1.9892-.6011 2.6419-1.8394 2.6495-.7737-.0044-1.3079-.3411-1.9182-1.0972-.1012-.1254-.387-.505-.5047-.6614l-.0001-.0002-.0002-.0001-.0001-.0002-.0003-.0004-.0502-.0666c-1.2582-1.6274-2.6895-2.60426-4.8594-2.61828-2.15847.01402-3.58974.99088-4.84789 2.61828l-.05021.0665c-.11722.1557-.40402.5368-.50547.6624-.6103.7561-1.14445 1.0928-1.92943 1.0972-1.22703-.0076-1.78774-.6603-1.82811-2.6838.05586-2.78012.22012-3.98586.85767-5.93651.69516-2.12697 2.32958-3.82411 3.75459-3.82411.72639 0 1.13057.09309 1.9483.38877l.06242.02258zm7.12723 3.58865c-.5063 0-.9167-.39797-.9167-.88889 0-.49092.4104-.88889.9167-.88889.5062 0 .9166.39797.9166.88889 0 .49092-.4104.88889-.9166.88889zm-.9167 2.66666c0 .49092.4104.88889.9167.88889.5062 0 .9166-.39797.9166-.88889 0-.49092-.4104-.88888-.9166-.88888-.5063 0-.9167.39796-.9167.88888zm2.75-.88888c-.5063 0-.9167-.39797-.9167-.88889 0-.49092.4104-.88889.9167-.88889s.9167.39797.9167.88889c0 .49092-.4104.88889-.9167.88889zm-4.5833-.88889c0 .49092.4104.88889.9166.88889.5063 0 .9167-.39797.9167-.88889 0-.49092-.4104-.88889-.9167-.88889-.5062 0-.9166.39797-.9166.88889zM6.4165 9.33333c-1.51879 0-2.75-1.1939-2.75-2.66666C3.6665 5.19391 4.89771 4 6.4165 4c1.51878 0 2.75 1.19391 2.75 2.66667 0 1.47276-1.23122 2.66666-2.75 2.66666zm.91666-2.66666c0 .49092-.4104.88889-.91666.88889s-.91667-.39797-.91667-.88889c0-.49092.41041-.88889.91667-.88889.50626 0 .91666.39797.91666.88889z" fill="#000"/></svg>