<svg width="19" height="19" fill="none" xmlns="http://www.w3.org/2000/svg"><path fill-rule="evenodd" clip-rule="evenodd" d="M17.9005 16.4865l-3.58-3.58-.001-.001c2.59-3.3365 2.1399-8.11163-1.0279-10.90543-3.1678-2.7938-7.96177-2.64357-10.94843.3431-2.98667 2.98666-3.1369 7.78063-.3431 10.94843 2.7938 3.1678 7.56893 3.6179 10.90543 1.0279l3.58 3.58c.2509.2601.6226.3647.9723.2734.3497-.0913.623-.3641.7147-.7137.0918-.3495-.0122-.7214-.272-.9727zm-4.7038-5.486c-1.0718 1.8564-3.0526 3-5.19618 3-3.31371 0-6-2.6863-6-5.99998 0-3.31371 2.68629-6 6-6 2.14358 0 4.12438 1.14359 5.19618 3 1.0718 1.85641 1.0718 4.14359 0 5.99998z" fill="#000"/></svg>