<svg width="20" height="18" fill="none" xmlns="http://www.w3.org/2000/svg"><path opacity=".24" fill-rule="evenodd" clip-rule="evenodd" d="M6.36364 0C4.85741 0 3.63636 1.20746 3.63636 2.69744V12.6H.90909C.40701 12.6 0 13.0042 0 13.4991V15.3C0 16.7912 1.22411 18 2.72727 18H13.6364c1.5059 0 2.7272-1.2056 2.7272-2.6955V5.4h2.7273c.5056 0 .9091-.40187.9091-.8976V2.70439C20 1.21111 18.7799 0 17.2727 0H6.36364zM5.3 16.2c.10009-.2807.15455-.5828.15455-.8974V2.69744c0-.49538.40652-.89744.90909-.89744.50038 0 .90909.4043.90909.9v1.80094c0 .49654.40351.89906.90909.89906h6.36368v9.9045c0 .4946-.4061.8955-.9091.8955H5.3zm-3.48182-1.8v.9c0 .4957.40871.9.90909.9.50257 0 .90909-.4021.90909-.8974V14.4H1.81818zM9.09091 3.6v-.9c0-.31557-.05482-.6185-.15551-.9h8.3373c.502 0 .9091.40414.9091.90439V3.6H9.09091z" fill="#000"/></svg>