<svg width="20" height="19" fill="none" xmlns="http://www.w3.org/2000/svg"><path fill-rule="evenodd" clip-rule="evenodd" d="M1.55192 10.5921c-.35503.3534-.93063.3534-1.28565 0-.35503-.3533-.35503-.92615 0-1.27948L9.35718.265c.35502-.35333.93062-.35333 1.28562 0l9.0909 9.04762c.3551.35333.3551.92618 0 1.27948-.355.3534-.9306.3534-1.2856 0l-.2663-.2647v6.8671c0 .9988-.8129 1.8055-1.819 1.8055H3.63716c-1.00368 0-1.81898-.8066-1.81898-1.8055v-6.8671l-.26626.2647zm2.08524 6.5984l2.72648.0005v-5.4313c0-.4985.40659-.9026.90639-.9026H12.73c.5006 0 .9064.4038.9064.9026v5.4332l2.7272.0016V8.51944L10 2.19166 3.63632 8.51948c-.00019 1.71132.00084 8.67102.00084 8.67102zm8.18104-4.5252v4.527l-3.63638-.0009v-4.5247l3.63638-.0014z" fill="#BABABA"/></svg>