<svg width="20" height="16" fill="none" xmlns="http://www.w3.org/2000/svg"><path opacity=".24" fill-rule="evenodd" clip-rule="evenodd" d="M1.81377 0C.81807 0 0 .79398 0 1.77341V14.2266C0 15.2066.8144 16 1.819 16h16.362C19.185 16 20 15.2042 20 14.2225V4.44412c0-.98332-.8157-1.77745-1.8219-1.77745h-8.1747L8.71574.74282C8.441.33233 7.81071 0 7.30762 0H1.81377zM18.181 14.2222l-16.36282.0044-.00441-12.44882 5.45896.00434 1.20938 1.85807c.33589.50184.90794.80425 1.52129.80425l8.1784-.00032-.0008 9.77808z" fill="#000"/></svg>