<svg width="18" height="17" fill="none" xmlns="http://www.w3.org/2000/svg"><path opacity=".24" fill-rule="evenodd" clip-rule="evenodd" d="M12.6 0C11.217 0 9.95536.53087 9 1.40391 8.04464.53087 6.78304 0 5.4 0 2.41766 0 0 2.46848 0 5.51351 0 9.95785 4.48072 14.2534 8.62049 16.7595c.2096.1328.55266.131.76167-.0018C13.4946 14.2432 18 9.95763 18 5.51351 18 2.46848 15.5823 0 12.6 0zM9.00509 14.8252C4.5546 11.8546 1.8 8.38441 1.8 5.51351c0-2.03002 1.61177-3.67567 3.6-3.67567.89958 0 1.74325.33575 2.39955.93551l.86606.79143c.18719.17107.4841.16877.66878 0l.86601-.79143c.6563-.59976 1.5-.93551 2.3996-.93551 1.9882 0 3.6 1.64565 3.6 3.67567 0 2.94472-2.7443 6.34109-7.19491 9.31169z" fill="#000"/></svg>