<svg width="18" height="20" fill="none" xmlns="http://www.w3.org/2000/svg"><path opacity=".24" fill-rule="evenodd" clip-rule="evenodd" d="M14.85 17.2729c1.7397 0 3.15-1.4245 3.15-3.1818V.92929a.92127.92127 0 00-.0238-.22778c-.1136-.48879-.598-.792-1.0819-.67724L5.22802 2.79094c-.40174.09527-.67685.44867-.72802.84563V13.9428c-.40916-.1964-.86688-.3062-1.35-.3062-1.7397 0-3.15 1.4245-3.15 3.1818 0 1.7573 1.4103 3.1818 3.15 3.1818 1.7397 0 3.15-1.4245 3.15-3.1818V8.0407l9.9-2.3478v5.5226c-.4092-.1963-.8669-.3062-1.35-.3062-1.7397 0-3.15 1.4245-3.15 3.1818 0 1.7573 1.4103 3.1818 3.15 3.1818zM6.3 6.17308V4.40434l9.9-2.3478v1.76874l-9.9 2.3478zm9.9 7.91802c0-.7531-.6044-1.3636-1.35-1.3636s-1.35.6105-1.35 1.3636c0 .7531.6044 1.3637 1.35 1.3637s1.35-.6106 1.35-1.3637zM3.15 15.4548c.74558 0 1.35.6105 1.35 1.3636 0 .7531-.60442 1.3636-1.35 1.3636-.74558 0-1.35-.6105-1.35-1.3636 0-.7531.60442-1.3636 1.35-1.3636z" fill="#000"/></svg>