<svg width="27" height="20" fill="none" xmlns="http://www.w3.org/2000/svg"><path opacity=".24" fill-rule="evenodd" clip-rule="evenodd" d="M22.2082 2.86766l-3.7991 2.81416V2.50266C18.4091 1.11814 17.3104 0 15.955 0H2.4541C1.09644 0 0 1.12048 0 2.50266V17.4973C0 18.8819 1.09874 20 2.4541 20H15.955c1.3576 0 2.4541-1.1205 2.4541-2.5027v-3.1791l3.7991 2.8141c.2718.2013.7719.3677 1.1118.3677h2.4491C26.456 17.5 27 16.939 27 16.2469V3.75309C27 3.06064 26.4489 2.5 25.7691 2.5H23.32c-.3468 0-.8377.16461-1.1118.36766zM2.45455 17.5v-15H15.9545v15H2.45455zm2.45454-3.75c0-.6904.55047-1.25 1.23087-1.25h6.12914c.6798 0 1.2309.5548 1.2309 1.25 0 .6904-.5505 1.25-1.2309 1.25H6.13996c-.67979 0-1.23087-.5548-1.23087-1.25zm18.60171 1.2498L18.424 11.238l.0003-2.47621 5.083-3.76519 1.0382.00158V14.9988l-1.0347.001z" fill="#000"/></svg>