<svg width="18" height="18" fill="none" xmlns="http://www.w3.org/2000/svg"><path opacity=".24" fill-rule="evenodd" clip-rule="evenodd" d="M3.9056 1c0-.55229.44911-1 .9954-1h8.0092c.5497 0 .9954.44387.9954 1 0 .55228-.4491 1-.9954 1H4.901c-.54975 0-.9954-.44386-.9954-1zM.0101 8.0949l.80092 8.0092C.91727 17.1665 1.83603 18 2.90122 18H14.91c1.0612 0 1.9843-.8368 2.0902-1.8959l.8009-8.0092C17.9152 6.95379 17.0495 6 15.9047 6H1.90647C.75932 6-.10381 6.95576.0101 8.0949zm2.00091-.09069l13.78879.00369L14.9056 16h-12l-.89459-7.99579zM2.90122 3c-.54567 0-.99562.44772-.99562 1 0 .55614.44576 1 .99562 1H14.91c.5457 0 .9956-.44772.9956-1 0-.55614-.4458-1-.9956-1H2.90122z" fill="#000"/></svg>