<svg width="16" height="21" fill="none" xmlns="http://www.w3.org/2000/svg"><path opacity=".24" fill-rule="evenodd" clip-rule="evenodd" d="M13.615 7.20041C15.1323 8.51081 16 10.1175 16 12.321c0 4.5908-3.5867 8.2058-7.9885 8.2058C3.60573 20.5268 0 16.9093 0 12.321c0-2.52688.54758-4.08858 2.15502-6.6844.50863-.82138 1.74365-.52226 1.83934.44549.08598.86958.34999 1.60978.73464 2.17726-.25656-3.0664 1.07472-6.51502 4.35731-8.15339.75998-.37931 1.60799.31855 1.41029 1.16052-.51251 2.18203.0155 3.35596 1.3958 4.62061.0336.03086.2056.1578.433.3257.4119.30407 1.0057.74245 1.2896.98762zM2.62075 9.00737C2.33897 9.66335 2 10.4525 2 12.321c0 3.4471 2.70107 6.157 6.0115 6.157 3.3044 0 5.9885-2.7053 5.9885-6.157 0-1.5399-.5754-2.60522-1.6742-3.55421-.1734-.1498-.58-.45223-.9626-.73689-.3618-.26914-.7023-.5224-.8042-.61574C9.23392 6.20002 8.4238 4.9071 8.31376 3.18307c-.66999.66905-2.20952 2.74901-1.34178 6.86533.13452.6381-.34018 1.2406-.97747 1.2406-1.26445 0-2.51435-.9906-3.27824-2.50696-.03065.0743-.0627.14891-.09552.22533z" fill="#000"/></svg>