<svg width="22" height="26" fill="none" xmlns="http://www.w3.org/2000/svg"><path opacity=".24" fill-rule="evenodd" clip-rule="evenodd" d="M3.66927 22.4545C1.64382 22.4545 0 20.8655 0 18.9091c0-1.2985.72712-2.4559 1.83849-3.0741 0-.3586-.00516-4.6094-.00516-4.6094 0-4.08375 2.83519-7.52195 6.72223-8.5491v-.31286C8.55556 1.05824 9.64997 0 11 0c1.35 0 2.4444 1.05824 2.4444 2.36364v.31286c3.8879 1.02694 6.7223 4.46544 6.7223 8.5553v4.6136C21.2793 16.4664 22 17.619 22 18.9091c0 1.959-1.6414 3.5454-3.6693 3.5454h-3.664C14.6646 24.413 13.0197 26 11 26c-2.02504 0-3.66667-1.5857-3.66667-3.5429l-3.66406-.0026zm6.10851 0c0 .6538.54662 1.1819 1.22222 1.1819.6709 0 1.2201-.53 1.2222-1.1819H9.77778zm7.94442-11.2227v5.7109c0 .3275.27.6605.5959.742l.3204.0801c.5348.1336.9171.6041.9171 1.1443 0 .6533-.5468 1.1818-1.2249 1.1818H3.66927c-.67558 0-1.22483-.5309-1.22483-1.1818 0-.5425.38073-1.0112.91582-1.1444l.33125-.0824c.32379-.0806.58627-.4091.58627-.7397v-5.717c0-3.58921 3.00897-6.49833 6.72222-6.49833 3.7148 0 6.7222 2.90814 6.7222 6.50453z" fill="#000"/></svg>