<svg width="17" height="19" fill="none" xmlns="http://www.w3.org/2000/svg"><path opacity=".24" fill-rule="evenodd" clip-rule="evenodd" d="M12.7263 16.7342c-1.2264.7852-2.6748 1.2388-4.2263 1.2388-1.55154 0-2.99992-.4536-4.22626-1.2388l-.90819 1.6155c-.27588.4908-.88392.6607-1.36555.3751-.47829-.2836-.64435-.9078-.3665-1.4021 0 0 1.04915-1.86 1.07644-1.8963C1.3407 13.9519.5 11.9552.5 9.75676c0-1.22364.26045-2.3848.72753-3.4282C.47625 5.66926 0 4.68905 0 3.59459 0 1.60935 1.567 0 3.5 0c1.29331 0 2.42278.72043 3.02869 1.79186.63059-.16412 1.29104-.25132 1.97131-.25132.61512 0 1.21402.0713 1.7893.20629C10.9011.7003 12.017 0 13.2921 0c1.933 0 3.5 1.60935 3.5 3.59459 0 1.02185-.4152 1.94411-1.0817 2.59857.506 1.07797.7896 2.28677.7896 3.5636 0 2.19844-.8407 4.19514-2.2099 5.66964.0272.0363 1.0764 1.8963 1.0764 1.8963.2778.4943.1118 1.1185-.3665 1.4021-.4816.2856-1.0897.1157-1.3656-.3751l-.9081-1.6155zM7.5 5.64845c0-.5671.44386-1.02683 1-1.02683.55229 0 1 .45571 1 1.02683v4.10831c0 .56724-.44335 1.02704-.99905 1.02704h-2.0019c-.55176 0-.99905-.4559-.99905-1.02704 0-.56721.44335-1.02703.99905-1.02703H7.5V5.64845zM2 3.59459c0-.85081.67157-1.54054 1.5-1.54054.43928 0 .8426.19573 1.12052.5155-.88407.50442-1.66533 1.1759-2.30332 1.97292C2.11715 4.27879 2 3.9482 2 3.59459zm12.7921 0c0-.85081-.6716-1.54054-1.5-1.54054-.4032 0-.776.16487-1.0495.43919.8879.48356 1.6765 1.13382 2.3264 1.91016.1422-.2369.2231-.5149.2231-.80881zM8.5 15.9189c-3.31371 0-6-2.7589-6-6.16214 0-3.40327 2.68629-6.16217 6-6.16217 3.3137 0 6 2.7589 6 6.16217 0 3.40324-2.6863 6.16214-6 6.16214z" fill="#000"/></svg>